<svg xmlns="http://www.w3.org/2000/svg" xmlns:xlink="http://www.w3.org/1999/xlink" width="400" height="400" viewBox="0 0 400 400"><path id="Shape" fill="#fff" fill-rule="evenodd" stroke="none" d="M 24.203533 313.996704 C 22.497358 312.988525 20.71752 311.703156 20.248325 311.140289 C 19.779148 310.577423 19.158737 309.00412 18.869638 307.644043 C 18.58054 306.283966 18.462687 304.2276 18.607737 303.074341 C 18.752785 301.921112 19.368368 300.076019 19.975676 298.974182 C 20.736259 297.594299 21.763571 296.39505 23.276785 295.120605 C 24.485083 294.102966 26.317646 292.945007 27.349148 292.547424 C 28.380663 292.14978 30.80162 291.685333 32.729065 291.51532 C 34.656509 291.345276 39.573704 291.136536 43.656151 291.051453 C 47.738602 290.966339 53.094646 290.68219 55.558479 290.420013 C 58.022308 290.157806 62.962444 289.50824 66.53656 288.976563 C 70.110672 288.444855 77.276779 287.106079 82.46122 286.001526 C 87.645668 284.896973 95.271942 283.079102 99.408508 281.961792 C 103.545059 280.844482 109.200317 279.258698 111.975716 278.437866 C 114.751122 277.617035 119.621056 276.056152 122.797806 274.969238 C 125.974556 273.882324 130.92598 272.054138 133.80101 270.906555 C 136.67601 269.759033 141.333282 267.741486 144.150436 266.423157 C 146.967606 265.104797 152.551285 262.292114 156.55864 260.17276 C 160.565979 258.053406 167.058685 254.435989 170.986877 252.134079 C 174.91507 249.832153 180.38475 246.516174 183.141678 244.765244 C 185.898621 243.014297 190.727356 239.810715 193.872223 237.646149 C 197.017075 235.481583 202.379547 231.589462 205.788803 228.99704 C 209.198059 226.404602 214.598312 222.085693 217.789322 219.399475 C 220.980347 216.713257 225.496887 212.74826 227.826111 210.588394 C 230.155319 208.428513 233.815002 204.902939 235.958755 202.753799 C 238.102509 200.60466 241.85762 196.604492 244.303467 193.864563 C 246.749313 191.124634 250.315613 186.894547 252.228561 184.46434 C 254.141525 182.034164 258.647736 175.516998 262.24234 169.981781 C 265.836945 164.446548 270.654266 156.698044 272.947479 152.762878 C 276.654755 146.401154 277.108307 145.453247 277.039032 144.211746 C 276.996185 143.443787 276.607452 142.22467 276.175171 141.502594 C 275.435333 140.266632 274.833557 139.884827 265.907776 134.98819 C 260.692932 132.12738 255.990387 129.371246 255.457626 128.863434 C 254.678558 128.12088 254.592438 127.780884 255.017578 127.126221 C 255.308319 126.678528 259.45224 123.638092 264.226257 120.36972 C 269.000275 117.101318 275.05368 112.709625 277.678192 110.610382 C 280.302734 108.511169 284.540924 104.932007 287.096405 102.656769 C 289.651886 100.3815 293.621155 96.627716 295.916962 94.315002 C 298.212799 92.002319 301.604462 88.410004 303.45401 86.332092 C 305.303558 84.254211 308.778595 80.038513 311.176392 76.963867 C 313.574188 73.889221 317.754211 68.179688 320.465302 64.276031 C 323.176422 60.372375 325.512268 57.254883 325.656067 57.348267 C 325.799866 57.44165 326.475281 60.728271 327.156982 64.651825 C 327.838684 68.575378 328.980011 75.80896 329.693268 80.726471 C 330.406494 85.643982 331.385345 92.928864 331.8685 96.91507 C 332.351624 100.901306 332.942688 107.004395 333.181976 110.477509 C 333.421295 113.950653 333.584351 119.31485 333.544342 122.39801 C 333.504364 125.48114 333.317627 132.303528 333.129456 137.558899 C 332.941254 142.81424 332.608887 149.154129 332.390808 151.647552 C 332.172729 154.140961 331.482452 159.272949 330.856842 163.051956 C 330.231232 166.830978 329.544556 169.960236 329.330902 170.005844 C 329.117279 170.051468 324.439911 167.603989 318.936798 164.567017 C 313.433655 161.529999 308.209534 158.845093 307.327637 158.60051 C 306.286163 158.311676 305.196381 158.381027 304.218201 158.798416 C 302.755951 159.422363 302.562897 159.67099 297.57019 167.358673 C 294.742065 171.713348 290.464264 177.971527 288.064026 181.265701 C 285.663788 184.559875 282.118988 189.340515 280.186737 191.889328 C 278.254486 194.438141 274.391815 199.226974 271.603027 202.531143 C 268.81424 205.835312 264.675964 210.55246 262.40683 213.013687 C 260.137726 215.474915 256.105652 219.681061 253.446671 222.360718 C 250.787689 225.040344 245.667648 229.978439 242.068832 233.334244 C 238.470016 236.690048 232.865585 241.678909 229.614548 244.420578 C 226.36351 247.162231 220.953705 251.482895 217.592789 254.022064 C 214.231857 256.561218 208.638046 260.547729 205.162094 262.881042 C 201.686142 265.214294 195.388626 269.173096 191.167603 271.678345 C 186.946609 274.183594 179.969452 278.051575 175.662842 280.273865 C 171.356232 282.496185 164.444824 285.865021 160.304184 287.760223 C 156.163513 289.655457 150.250778 292.22583 147.16478 293.472229 C 144.078781 294.718567 139.016144 296.665863 135.914505 297.799469 C 132.812866 298.933044 127.136742 300.827209 123.300888 302.008667 C 119.465027 303.190094 113.384239 304.928772 109.788017 305.872345 C 106.19178 306.815918 100.018745 308.265076 96.070129 309.092712 C 92.121529 309.920319 85.505859 311.182983 81.368629 311.898621 C 77.231415 312.614258 70.542603 313.660278 66.504585 314.223175 C 62.466576 314.786041 56.040638 315.592529 52.224701 316.015411 C 48.408764 316.438293 43.716801 316.888123 41.7981 317.015106 C 39.879398 317.14209 37.037373 317.162598 35.482475 317.06073 C 33.927574 316.958801 31.451702 316.640137 29.980526 316.35257 C 28.000807 315.965576 26.499504 315.353333 24.203533 313.996704 Z"/><path id="Path" fill="#a71d31" fill-rule="evenodd" stroke="none" d="M 338.476746 52.098419 C 338.476746 52.098419 328.245178 66.809631 322.538574 73.703369 C 318.051697 79.123596 313.160065 84.205231 308.190857 89.187012 C 303.143738 94.246857 292.501282 103.799225 292.501282 103.799225 C 292.501282 103.799225 292.19696 104.034393 291.679443 104.43396 C 289.609406 106.032257 284.128357 110.260925 281.068573 112.590881 C 278.585297 114.481812 276.12677 116.407043 273.59201 118.228333 C 272.184357 119.239777 269.300385 121.164673 269.300385 121.164673 L 294.66098 135.726257 C 294.66098 135.726257 288.938416 145.993149 285.746277 150.922577 C 280.668488 158.763947 275.244568 166.392715 269.48999 173.751785 C 265.761292 178.520111 261.697327 183.018509 257.673676 187.540726 C 254.526382 191.077988 251.338348 194.582092 248.035919 197.974976 C 245.080383 201.011475 238.934113 206.849503 238.934113 206.849503 C 238.934113 206.849503 228.732544 216.225433 223.344772 220.572937 C 217.138824 225.580658 210.671936 230.267441 204.100037 234.784195 C 198.789108 238.43428 193.359161 241.919571 187.805023 245.187683 C 182.045456 248.576645 176.188538 251.819351 170.168137 254.719742 C 162.638794 258.347107 147.098251 264.539154 147.098251 264.539154 C 147.098251 264.539154 128.405136 271.572235 118.813232 274.310425 C 112.375793 276.148102 99.229042 278.762329 99.229042 278.762329 L 87.609245 281.232178 L 78.085129 282.678284 L 63.345867 284.076233 C 63.345867 284.076233 55.595512 284.864929 51.708698 285.104004 C 48.459755 285.303802 45.117649 284.696777 41.949356 285.44342 C 40.257256 285.842194 38.56741 286.529175 37.204666 287.608582 C 35.946102 288.605499 35.0415 290.016663 34.254929 291.416351 C 33.319683 293.080597 32.4048 294.867249 32.211357 296.766479 C 32.010502 298.738434 32.390514 300.812592 33.169624 302.635193 C 33.783051 304.07019 34.907421 305.247803 35.988354 306.373474 C 36.824619 307.244354 37.713474 308.122375 38.789711 308.669647 C 39.16555 308.860748 40.08609 309.578247 40.467052 309.758911 C 42.638893 310.78891 43.766182 312.722137 45.834545 313.244598 C 57.263325 316.13147 81.081528 310.379211 81.081528 310.379211 L 126.889793 300.064026 L 177.321152 277.488892 L 231.722061 243.660187 L 251.855606 229.549179 C 251.855606 229.549179 260.901062 221.50621 265.131409 217.184982 C 268.811859 213.425446 272.205048 209.393494 275.640564 205.408859 C 279.323151 201.137665 282.888336 196.766403 286.467865 192.408478 C 289.701508 188.471603 293.093353 184.653519 296.088226 180.532104 C 299.928833 175.246826 303.204865 169.573471 306.763153 164.094162 C 310.103607 158.950317 316.784515 148.662628 316.784515 148.662628 L 342.580841 162.553268 C 342.580841 162.553268 343.801086 151.527802 344.267609 146.001694 C 344.819946 139.459076 345.438324 132.912292 345.584167 126.348022 C 345.741882 119.249237 346.110352 89.92041 342.92868 71.682587 C 341.778137 65.087585 338.476746 52.098419 338.476746 52.098419 Z"/><path id="path1" fill="none" stroke="#000" stroke-linecap="round" stroke-linejoin="round" stroke-width="10" d="M 321.209503 53.723938 C 318.656586 58.374298 308.159149 73.363678 300.36087 82.155853 C 291.884888 91.712128 282.440216 100.466675 272.384521 108.343719 C 266.926239 112.619446 253.568436 121.185608 252.250992 122.454742 C 249.229065 125.365845 248.865555 126.933441 248.865555 126.933441 L 249.118149 129.482208 L 253.161133 133.538574 L 272.147827 143.960907 C 272.147827 143.960907 259.900604 165.599152 252.558197 175.595169 C 246.184204 184.272781 239.077728 192.44754 231.439606 200.036209 C 221.473831 209.937469 210.6259 218.996506 199.372131 227.382828 C 188.518555 235.470932 177.232193 242.645172 165.575226 249.313828 C 154.836929 255.45694 143.859909 261.301727 132.379776 265.912079 C 118.850838 271.345215 104.747421 275.331512 90.597122 278.841522 C 78.789444 281.770416 67.037865 283.896973 54.949169 285.262085 C 46.678276 286.196045 38.485001 285.380829 29.779633 286.563751 C 24.087765 287.337219 18.443272 291.451172 15.697917 296.496796 C 13.326352 300.855469 13.249063 306.767273 15.100433 311.371033 C 16.417557 314.646301 19.643667 317.004944 22.73333 318.712616 C 26.313032 320.691162 30.566931 321.307983 34.640465 321.675751 C 41.758232 322.31839 48.927265 321.034821 56.036976 320.308563 C 64.122772 319.482605 72.17115 318.281067 80.182739 316.911194 C 89.011795 315.40155 97.833931 313.77063 106.524429 311.601257 C 116.711349 309.058319 126.831406 306.155762 136.704651 302.583801 C 148.632263 298.268616 160.314774 293.229767 171.695053 287.628174 C 182.236481 282.439453 192.540054 276.717957 202.441986 270.393738 C 211.477798 264.62265 220.202576 258.329498 228.509735 251.551407 C 239.284042 242.760315 249.491562 233.254456 259.235321 223.333359 C 266.793091 215.638046 273.905426 207.495575 280.689392 199.110168 C 286.318146 192.15274 296.627594 177.505234 296.627594 177.505234 L 305.995392 163.080093 L 324.646637 173.284561 C 324.646637 173.284561 331.965912 177.49379 333.534546 174.287003 C 334.692413 171.919952 335.395508 164.354553 335.726501 162.832947 C 338.083984 151.994888 338.006073 134.580109 338.376984 124.967712 C 338.813965 113.642822 337.540436 102.204224 336.082275 91.045258 C 334.481934 78.798187 332.628265 66.370667 330.432892 54.944214 C 329.847748 51.898651 323.762451 49.073578 321.209503 53.723938 Z"/></svg>