<svg xmlns="http://www.w3.org/2000/svg" xmlns:svgjs="http://svgjs.com/svgjs" xmlns:xlink="http://www.w3.org/1999/xlink" width="1366" height="768" preserveAspectRatio="none" version="1.1" viewBox="0 0 1366 768"><g fill="none" mask="url(&quot;#SvgjsMask1196&quot;)"><rect width="1366" height="768" x="0" y="0" fill="rgba(184, 216, 216, 1)"/><use x="0" y="0" xlink:href="#SvgjsSymbol1203"/><use x="0" y="720" xlink:href="#SvgjsSymbol1203"/><use x="720" y="0" xlink:href="#SvgjsSymbol1203"/><use x="720" y="720" xlink:href="#SvgjsSymbol1203"/></g><defs><mask id="SvgjsMask1196"><rect width="1366" height="768" fill="#fff"/></mask><path id="SvgjsPath1202" d="M-1 0 a1 1 0 1 0 2 0 a1 1 0 1 0 -2 0z"/><path id="SvgjsPath1200" d="M-3 0 a3 3 0 1 0 6 0 a3 3 0 1 0 -6 0z"/><path id="SvgjsPath1197" d="M-5 0 a5 5 0 1 0 10 0 a5 5 0 1 0 -10 0z"/><path id="SvgjsPath1198" d="M2 -2 L-2 2z"/><path id="SvgjsPath1199" d="M6 -6 L-6 6z"/><path id="SvgjsPath1201" d="M30 -30 L-30 30z"/></defs><symbol id="SvgjsSymbol1203"><use x="30" y="30" stroke="rgba(145, 199, 177, 1)" xlink:href="#SvgjsPath1197"/><use x="30" y="90" stroke="rgba(48, 131, 220, 1)" xlink:href="#SvgjsPath1198"/><use x="30" y="150" stroke="rgba(255, 203, 71, 1)" xlink:href="#SvgjsPath1197"/><use x="30" y="210" stroke="rgba(145, 199, 177, 1)" xlink:href="#SvgjsPath1197"/><use x="30" y="270" stroke="rgba(48, 131, 220, 1)" xlink:href="#SvgjsPath1199"/><use x="30" y="330" stroke="rgba(48, 131, 220, 1)" xlink:href="#SvgjsPath1199"/><use x="30" y="390" stroke="rgba(48, 131, 220, 1)" xlink:href="#SvgjsPath1199"/><use x="30" y="450" stroke="rgba(145, 199, 177, 1)" xlink:href="#SvgjsPath1197"/><use x="30" y="510" stroke="rgba(255, 203, 71, 1)" xlink:href="#SvgjsPath1198"/><use x="30" y="570" stroke="rgba(255, 203, 71, 1)" xlink:href="#SvgjsPath1197"/><use x="30" y="630" stroke="rgba(48, 131, 220, 1)" xlink:href="#SvgjsPath1200"/><use x="30" y="690" stroke="rgba(48, 131, 220, 1)" xlink:href="#SvgjsPath1197"/><use x="90" y="30" stroke="rgba(48, 131, 220, 1)" xlink:href="#SvgjsPath1199"/><use x="90" y="90" stroke="rgba(48, 131, 220, 1)" xlink:href="#SvgjsPath1197"/><use x="90" y="150" stroke="rgba(48, 131, 220, 1)" xlink:href="#SvgjsPath1198"/><use x="90" y="210" stroke="rgba(48, 131, 220, 1)" xlink:href="#SvgjsPath1199"/><use x="90" y="270" stroke="rgba(48, 131, 220, 1)" xlink:href="#SvgjsPath1197"/><use x="90" y="330" stroke="rgba(145, 199, 177, 1)" xlink:href="#SvgjsPath1200"/><use x="90" y="390" stroke="rgba(48, 131, 220, 1)" xlink:href="#SvgjsPath1198"/><use x="90" y="450" stroke="rgba(255, 203, 71, 1)" xlink:href="#SvgjsPath1197"/><use x="90" y="510" stroke="rgba(145, 199, 177, 1)" xlink:href="#SvgjsPath1199"/><use x="90" y="570" stroke="rgba(145, 199, 177, 1)" xlink:href="#SvgjsPath1199"/><use x="90" y="630" stroke="rgba(255, 203, 71, 1)" xlink:href="#SvgjsPath1200"/><use x="90" y="690" stroke="rgba(48, 131, 220, 1)" xlink:href="#SvgjsPath1199"/><use x="150" y="30" stroke="rgba(48, 131, 220, 1)" xlink:href="#SvgjsPath1199"/><use x="150" y="90" stroke="rgba(48, 131, 220, 1)" stroke-width="3" xlink:href="#SvgjsPath1201"/><use x="150" y="150" stroke="rgba(255, 203, 71, 1)" xlink:href="#SvgjsPath1198"/><use x="150" y="210" stroke="rgba(255, 203, 71, 1)" xlink:href="#SvgjsPath1199"/><use x="150" y="270" stroke="rgba(255, 203, 71, 1)" stroke-width="3" xlink:href="#SvgjsPath1201"/><use x="150" y="330" stroke="rgba(145, 199, 177, 1)" xlink:href="#SvgjsPath1197"/><use x="150" y="390" stroke="rgba(48, 131, 220, 1)" xlink:href="#SvgjsPath1199"/><use x="150" y="450" stroke="rgba(255, 203, 71, 1)" xlink:href="#SvgjsPath1199"/><use x="150" y="510" stroke="rgba(48, 131, 220, 1)" xlink:href="#SvgjsPath1199"/><use x="150" y="570" stroke="rgba(255, 203, 71, 1)" xlink:href="#SvgjsPath1197"/><use x="150" y="630" stroke="rgba(48, 131, 220, 1)" xlink:href="#SvgjsPath1199"/><use x="150" y="690" stroke="rgba(255, 203, 71, 1)" xlink:href="#SvgjsPath1197"/><use x="210" y="30" stroke="rgba(48, 131, 220, 1)" xlink:href="#SvgjsPath1198"/><use x="210" y="90" stroke="rgba(255, 203, 71, 1)" xlink:href="#SvgjsPath1199"/><use x="210" y="150" stroke="rgba(48, 131, 220, 1)" xlink:href="#SvgjsPath1199"/><use x="210" y="210" stroke="rgba(255, 203, 71, 1)" xlink:href="#SvgjsPath1197"/><use x="210" y="270" stroke="rgba(145, 199, 177, 1)" xlink:href="#SvgjsPath1202"/><use x="210" y="330" stroke="rgba(48, 131, 220, 1)" xlink:href="#SvgjsPath1198"/><use x="210" y="390" stroke="rgba(48, 131, 220, 1)" xlink:href="#SvgjsPath1199"/><use x="210" y="450" stroke="rgba(255, 203, 71, 1)" xlink:href="#SvgjsPath1197"/><use x="210" y="510" stroke="rgba(145, 199, 177, 1)" xlink:href="#SvgjsPath1199"/><use x="210" y="570" stroke="rgba(48, 131, 220, 1)" xlink:href="#SvgjsPath1198"/><use x="210" y="630" stroke="rgba(145, 199, 177, 1)" xlink:href="#SvgjsPath1197"/><use x="210" y="690" stroke="rgba(255, 203, 71, 1)" xlink:href="#SvgjsPath1199"/><use x="270" y="30" stroke="rgba(255, 203, 71, 1)" xlink:href="#SvgjsPath1197"/><use x="270" y="90" stroke="rgba(255, 203, 71, 1)" xlink:href="#SvgjsPath1202"/><use x="270" y="150" stroke="rgba(145, 199, 177, 1)" xlink:href="#SvgjsPath1197"/><use x="270" y="210" stroke="rgba(145, 199, 177, 1)" xlink:href="#SvgjsPath1197"/><use x="270" y="270" stroke="rgba(145, 199, 177, 1)" xlink:href="#SvgjsPath1197"/><use x="270" y="330" stroke="rgba(145, 199, 177, 1)" xlink:href="#SvgjsPath1198"/><use x="270" y="390" stroke="rgba(145, 199, 177, 1)" xlink:href="#SvgjsPath1199"/><use x="270" y="450" stroke="rgba(48, 131, 220, 1)" xlink:href="#SvgjsPath1197"/><use x="270" y="510" stroke="rgba(255, 203, 71, 1)" xlink:href="#SvgjsPath1198"/><use x="270" y="570" stroke="rgba(48, 131, 220, 1)" stroke-width="3" xlink:href="#SvgjsPath1201"/><use x="270" y="630" stroke="rgba(145, 199, 177, 1)" xlink:href="#SvgjsPath1198"/><use x="270" y="690" stroke="rgba(255, 203, 71, 1)" xlink:href="#SvgjsPath1202"/><use x="330" y="30" stroke="rgba(48, 131, 220, 1)" xlink:href="#SvgjsPath1198"/><use x="330" y="90" stroke="rgba(255, 203, 71, 1)" xlink:href="#SvgjsPath1198"/><use x="330" y="150" stroke="rgba(48, 131, 220, 1)" xlink:href="#SvgjsPath1197"/><use x="330" y="210" stroke="rgba(145, 199, 177, 1)" xlink:href="#SvgjsPath1199"/><use x="330" y="270" stroke="rgba(48, 131, 220, 1)" xlink:href="#SvgjsPath1202"/><use x="330" y="330" stroke="rgba(255, 203, 71, 1)" xlink:href="#SvgjsPath1202"/><use x="330" y="390" stroke="rgba(48, 131, 220, 1)" xlink:href="#SvgjsPath1200"/><use x="330" y="450" stroke="rgba(255, 203, 71, 1)" xlink:href="#SvgjsPath1197"/><use x="330" y="510" stroke="rgba(145, 199, 177, 1)" xlink:href="#SvgjsPath1197"/><use x="330" y="570" stroke="rgba(48, 131, 220, 1)" xlink:href="#SvgjsPath1197"/><use x="330" y="630" stroke="rgba(145, 199, 177, 1)" xlink:href="#SvgjsPath1199"/><use x="330" y="690" stroke="rgba(255, 203, 71, 1)" xlink:href="#SvgjsPath1197"/><use x="390" y="30" stroke="rgba(145, 199, 177, 1)" stroke-width="3" xlink:href="#SvgjsPath1201"/><use x="390" y="90" stroke="rgba(48, 131, 220, 1)" xlink:href="#SvgjsPath1198"/><use x="390" y="150" stroke="rgba(48, 131, 220, 1)" xlink:href="#SvgjsPath1197"/><use x="390" y="210" stroke="rgba(48, 131, 220, 1)" stroke-width="3" xlink:href="#SvgjsPath1201"/><use x="390" y="270" stroke="rgba(48, 131, 220, 1)" xlink:href="#SvgjsPath1198"/><use x="390" y="330" stroke="rgba(48, 131, 220, 1)" xlink:href="#SvgjsPath1200"/><use x="390" y="390" stroke="rgba(145, 199, 177, 1)" xlink:href="#SvgjsPath1197"/><use x="390" y="450" stroke="rgba(145, 199, 177, 1)" xlink:href="#SvgjsPath1199"/><use x="390" y="510" stroke="rgba(255, 203, 71, 1)" xlink:href="#SvgjsPath1199"/><use x="390" y="570" stroke="rgba(48, 131, 220, 1)" xlink:href="#SvgjsPath1199"/><use x="390" y="630" stroke="rgba(48, 131, 220, 1)" xlink:href="#SvgjsPath1197"/><use x="390" y="690" stroke="rgba(145, 199, 177, 1)" xlink:href="#SvgjsPath1200"/><use x="450" y="30" stroke="rgba(255, 203, 71, 1)" xlink:href="#SvgjsPath1199"/><use x="450" y="90" stroke="rgba(48, 131, 220, 1)" xlink:href="#SvgjsPath1197"/><use x="450" y="150" stroke="rgba(255, 203, 71, 1)" xlink:href="#SvgjsPath1200"/><use x="450" y="210" stroke="rgba(255, 203, 71, 1)" xlink:href="#SvgjsPath1199"/><use x="450" y="270" stroke="rgba(145, 199, 177, 1)" xlink:href="#SvgjsPath1198"/><use x="450" y="330" stroke="rgba(48, 131, 220, 1)" xlink:href="#SvgjsPath1197"/><use x="450" y="390" stroke="rgba(145, 199, 177, 1)" xlink:href="#SvgjsPath1197"/><use x="450" y="450" stroke="rgba(145, 199, 177, 1)" xlink:href="#SvgjsPath1198"/><use x="450" y="510" stroke="rgba(145, 199, 177, 1)" xlink:href="#SvgjsPath1199"/><use x="450" y="570" stroke="rgba(145, 199, 177, 1)" xlink:href="#SvgjsPath1197"/><use x="450" y="630" stroke="rgba(255, 203, 71, 1)" xlink:href="#SvgjsPath1202"/><use x="450" y="690" stroke="rgba(48, 131, 220, 1)" xlink:href="#SvgjsPath1198"/><use x="510" y="30" stroke="rgba(145, 199, 177, 1)" xlink:href="#SvgjsPath1199"/><use x="510" y="90" stroke="rgba(48, 131, 220, 1)" xlink:href="#SvgjsPath1200"/><use x="510" y="150" stroke="rgba(255, 203, 71, 1)" xlink:href="#SvgjsPath1199"/><use x="510" y="210" stroke="rgba(255, 203, 71, 1)" xlink:href="#SvgjsPath1197"/><use x="510" y="270" stroke="rgba(145, 199, 177, 1)" stroke-width="3" xlink:href="#SvgjsPath1201"/><use x="510" y="330" stroke="rgba(48, 131, 220, 1)" xlink:href="#SvgjsPath1199"/><use x="510" y="390" stroke="rgba(255, 203, 71, 1)" xlink:href="#SvgjsPath1202"/><use x="510" y="450" stroke="rgba(255, 203, 71, 1)" xlink:href="#SvgjsPath1198"/><use x="510" y="510" stroke="rgba(145, 199, 177, 1)" xlink:href="#SvgjsPath1199"/><use x="510" y="570" stroke="rgba(255, 203, 71, 1)" xlink:href="#SvgjsPath1202"/><use x="510" y="630" stroke="rgba(48, 131, 220, 1)" xlink:href="#SvgjsPath1202"/><use x="510" y="690" stroke="rgba(255, 203, 71, 1)" xlink:href="#SvgjsPath1197"/><use x="570" y="30" stroke="rgba(48, 131, 220, 1)" xlink:href="#SvgjsPath1199"/><use x="570" y="90" stroke="rgba(255, 203, 71, 1)" xlink:href="#SvgjsPath1199"/><use x="570" y="150" stroke="rgba(255, 203, 71, 1)" xlink:href="#SvgjsPath1200"/><use x="570" y="210" stroke="rgba(48, 131, 220, 1)" xlink:href="#SvgjsPath1199"/><use x="570" y="270" stroke="rgba(145, 199, 177, 1)" xlink:href="#SvgjsPath1199"/><use x="570" y="330" stroke="rgba(48, 131, 220, 1)" xlink:href="#SvgjsPath1198"/><use x="570" y="390" stroke="rgba(145, 199, 177, 1)" xlink:href="#SvgjsPath1198"/><use x="570" y="450" stroke="rgba(48, 131, 220, 1)" xlink:href="#SvgjsPath1197"/><use x="570" y="510" stroke="rgba(255, 203, 71, 1)" xlink:href="#SvgjsPath1198"/><use x="570" y="570" stroke="rgba(145, 199, 177, 1)" xlink:href="#SvgjsPath1198"/><use x="570" y="630" stroke="rgba(145, 199, 177, 1)" xlink:href="#SvgjsPath1198"/><use x="570" y="690" stroke="rgba(48, 131, 220, 1)" stroke-width="3" xlink:href="#SvgjsPath1201"/><use x="630" y="30" stroke="rgba(145, 199, 177, 1)" xlink:href="#SvgjsPath1200"/><use x="630" y="90" stroke="rgba(48, 131, 220, 1)" xlink:href="#SvgjsPath1198"/><use x="630" y="150" stroke="rgba(48, 131, 220, 1)" xlink:href="#SvgjsPath1199"/><use x="630" y="210" stroke="rgba(255, 203, 71, 1)" xlink:href="#SvgjsPath1197"/><use x="630" y="270" stroke="rgba(145, 199, 177, 1)" xlink:href="#SvgjsPath1199"/><use x="630" y="330" stroke="rgba(255, 203, 71, 1)" stroke-width="3" xlink:href="#SvgjsPath1201"/><use x="630" y="390" stroke="rgba(48, 131, 220, 1)" xlink:href="#SvgjsPath1199"/><use x="630" y="450" stroke="rgba(255, 203, 71, 1)" xlink:href="#SvgjsPath1197"/><use x="630" y="510" stroke="rgba(48, 131, 220, 1)" xlink:href="#SvgjsPath1197"/><use x="630" y="570" stroke="rgba(255, 203, 71, 1)" xlink:href="#SvgjsPath1197"/><use x="630" y="630" stroke="rgba(145, 199, 177, 1)" xlink:href="#SvgjsPath1197"/><use x="630" y="690" stroke="rgba(48, 131, 220, 1)" xlink:href="#SvgjsPath1199"/><use x="690" y="30" stroke="rgba(255, 203, 71, 1)" xlink:href="#SvgjsPath1197"/><use x="690" y="90" stroke="rgba(48, 131, 220, 1)" xlink:href="#SvgjsPath1197"/><use x="690" y="150" stroke="rgba(255, 203, 71, 1)" xlink:href="#SvgjsPath1197"/><use x="690" y="210" stroke="rgba(145, 199, 177, 1)" xlink:href="#SvgjsPath1197"/><use x="690" y="270" stroke="rgba(255, 203, 71, 1)" xlink:href="#SvgjsPath1197"/><use x="690" y="330" stroke="rgba(255, 203, 71, 1)" xlink:href="#SvgjsPath1197"/><use x="690" y="390" stroke="rgba(48, 131, 220, 1)" xlink:href="#SvgjsPath1197"/><use x="690" y="450" stroke="rgba(255, 203, 71, 1)" xlink:href="#SvgjsPath1197"/><use x="690" y="510" stroke="rgba(255, 203, 71, 1)" xlink:href="#SvgjsPath1197"/><use x="690" y="570" stroke="rgba(145, 199, 177, 1)" xlink:href="#SvgjsPath1199"/><use x="690" y="630" stroke="rgba(48, 131, 220, 1)" xlink:href="#SvgjsPath1198"/><use x="690" y="690" stroke="rgba(145, 199, 177, 1)" xlink:href="#SvgjsPath1197"/></symbol></svg>